<svg width="98" height="112" viewBox="0 0 98 112" fill="none" xmlns="http://www.w3.org/2000/svg">
<path d="M95.568 85.432C92.784 83.232 89.392 81.648 85.712 80.88L68.168 77.36C66.328 77 65 75.352 65 73.44V68.88C82.48 67.208 85 63.64 85 60C85 49.24 77.848 24.256 76.672 20.192C76.52 13.912 75.376 10.384 72.504 7.288C70.472 5.088 67.48 4.576 65.072 4.168C64.128 4 62.824 3.784 62.344 3.52C58.08 1.216 53.864 0.096 48.832 0C38.296 0.432 25.344 7.136 20.912 19.392C20.592 20.536 13 47.592 13 60C13 65.176 18.848 67.904 33 69.152V73.44C33 75.352 31.664 77 29.816 77.36L12.256 80.88C8.60003 81.656 5.20803 83.224 2.43203 85.424C1.56803 86.12 1.02403 87.136 0.936027 88.24C0.848027 89.344 1.21603 90.424 1.96003 91.248C13.912 104.44 31.056 112 49 112C66.944 112 84.096 104.44 96.04 91.248C96.784 90.424 97.16 89.336 97.064 88.232C96.976 87.136 96.432 86.12 95.568 85.432Z" fill="#455A64"/>
</svg>
