<svg width="120" height="52" viewBox="0 0 120 52" fill="none" xmlns="http://www.w3.org/2000/svg">
<path d="M51.2443 41.4674H47.5911C47.4624 41.4674 47.3699 41.3221 47.3699 41.1835C47.3699 41.1343 49.3138 34.8671 49.3138 34.8671C49.3832 34.6327 49.3898 34.6259 49.4162 34.6259H49.4195C49.4489 34.6259 49.4525 34.6327 49.5215 34.8671C49.5215 34.8671 51.4654 41.1343 51.4654 41.1835C51.4654 41.3221 51.3664 41.4674 51.2445 41.4674H51.2443ZM56.1716 27.128C56.1535 27.0661 56.1169 27.0111 56.0668 26.9704C56.0167 26.9298 55.9554 26.9053 55.891 26.9003H42.4756C42.4118 26.9054 42.351 26.9295 42.3009 26.9695C42.2509 27.0095 42.2141 27.0636 42.1951 27.1247C42.1951 27.1247 34.7795 51.6056 34.7795 51.6521C34.7795 51.7739 34.8752 51.873 35.0006 51.873H43.8683C43.9034 51.8584 43.9344 51.8354 43.9586 51.806C43.9827 51.7767 43.9993 51.7419 44.007 51.7046L45.0398 48.4046C45.0557 48.3637 45.0833 48.3284 45.1191 48.3032C45.1549 48.2779 45.1974 48.2637 45.2412 48.2624L53.4226 48.2561C53.5114 48.2627 53.5909 48.3254 53.6239 48.4046L54.6799 51.7046C54.6964 51.7808 54.7492 51.8499 54.8185 51.8763L63.5443 51.873C63.6662 51.873 63.7687 51.7805 63.7687 51.6584C63.7687 51.6155 56.1716 27.128 56.1716 27.128ZM81.4513 37.1233L76.0024 37.1266C76.0024 37.1266 75.8575 37.0837 75.8575 36.9187L75.8542 34.1696C75.8542 34.0046 75.9994 33.9617 75.9994 33.9617H80.9958C81.5767 33.9617 82.7515 34.2521 82.7515 35.5953C82.7515 36.9385 81.4513 37.1233 81.4513 37.1233ZM107.576 34.9948H119.922V26.8993H104.048C102.563 26.8993 100.474 27.665 99.2757 28.5527C98.0778 29.4404 96.3452 31.4635 96.3452 34.2521C96.3452 37.0408 98.0382 39.2091 98.0382 39.2091C98.9061 40.2849 101.091 42.5259 101.091 42.5259C101.14 42.5787 101.17 42.6478 101.17 42.7273C101.17 42.8954 101.035 43.0307 100.866 43.0307H88.6391C87.1507 43.0241 87.0484 42.4335 87.0484 42.3477C87.0484 42.1958 87.2332 42.1001 87.2332 42.1001C87.7911 41.8328 88.9293 40.9448 88.9293 40.9448C91.3452 39.0639 91.636 36.4832 91.636 35.1004C91.636 33.7141 91.4277 31.2621 88.9494 29.1138C86.471 26.9653 83.3325 26.9059 83.3325 26.9059H65.884V51.7303C65.884 51.8092 65.9566 51.872 66.0359 51.872H75.7485V44.9086C75.7485 44.7867 75.9364 44.9086 75.9364 44.9086L80.9958 49.991C82.7944 51.8092 85.7679 51.872 85.7679 51.872L104.896 51.8687C108.16 51.8687 109.975 50.0933 110.473 49.5982C110.968 49.0998 112.622 47.242 112.622 44.1629C112.622 41.087 111.216 39.5128 110.615 38.7902C110.081 38.1432 107.949 35.8858 107.503 35.417C107.476 35.3951 107.455 35.3674 107.44 35.3361C107.425 35.3047 107.417 35.2705 107.417 35.2358C107.417 35.1266 107.48 35.0245 107.576 34.9945V34.9948ZM30.3468 51.8714C30.4128 51.8714 30.459 51.8252 30.4788 51.7526C30.4788 51.7526 37.9934 27.0704 37.9934 27.047C37.9934 26.981 37.9538 26.9087 37.8911 26.9021H28.6273C28.5811 26.9021 28.5514 26.9384 28.5415 26.9879C28.5415 26.9912 26.624 33.4066 26.624 33.4099C26.6108 33.4627 26.5844 33.4957 26.5382 33.4957C26.492 33.4957 26.4524 33.4495 26.4458 33.4099L24.4394 26.9846C24.4328 26.9414 24.3998 26.9021 24.3536 26.9021L14.1229 26.8988C14.1081 26.9028 14.0944 26.9103 14.0829 26.9206C14.0714 26.931 14.0626 26.9438 14.0569 26.9582L12.2583 33.4066C12.2484 33.4627 12.2187 33.4957 12.1691 33.4957C12.1481 33.4953 12.128 33.4875 12.1123 33.4736C12.0965 33.4597 12.0863 33.4406 12.0833 33.4198L10.1757 26.978C10.1734 26.9583 10.1648 26.9399 10.1511 26.9256C10.1374 26.9113 10.1194 26.9019 10.0998 26.8988H0.225644C0.186764 26.8993 0.149673 26.9152 0.122464 26.943C0.0952559 26.9707 0.0801385 27.0081 0.0804104 27.047C0.0804104 27.0602 0.0837108 27.0866 0.0837108 27.0866L7.71055 51.7526C7.73035 51.8252 7.77656 51.8714 7.84258 51.8714L16.0437 51.8747C16.093 51.8681 16.1428 51.812 16.1557 51.7526C16.159 51.7526 19.0104 42.5747 19.0104 42.5747C19.0269 42.5186 19.05 42.4858 19.0962 42.4858C19.1457 42.4858 19.1724 42.5252 19.1853 42.5714L21.9674 51.7922C21.9755 51.8155 21.9907 51.8356 22.0108 51.8498C22.0309 51.864 22.055 51.8716 22.0796 51.8714H30.3468ZM23.2125 0.0791406C21.7241 0.0791406 19.6386 0.844668 18.4406 1.73258C17.2422 2.62023 15.51 4.64336 15.51 7.43201C15.51 10.2207 17.2028 12.389 17.2028 12.389C18.0709 13.4648 20.2555 15.7221 20.2555 15.7221C20.3051 15.7749 20.3348 15.8442 20.3348 15.9201C20.3348 16.0884 20.1994 16.2271 20.0313 16.2271H0.078125V25.0518H24.0608C27.3215 25.0518 29.1397 23.2763 29.6381 22.7781C30.1333 22.283 31.7834 20.4249 31.7834 17.3458C31.7834 14.27 30.3808 12.6792 29.7801 11.9566C29.2453 11.3097 27.1136 9.06564 26.6679 8.60023C26.6412 8.57736 26.6198 8.54903 26.605 8.51714C26.5901 8.48525 26.5824 8.45055 26.5821 8.41539C26.5821 8.30646 26.6448 8.20744 26.7406 8.17443H38.2913V25.0518H47.1721V8.21734H57.954V0.0791406H23.2125ZM100.671 10.3034L95.2224 10.3067C95.2224 10.3067 95.0771 10.2638 95.0771 10.0988L95.0738 7.34975C95.0738 7.18471 95.2191 7.1418 95.2191 7.1418H100.216C100.796 7.1418 101.971 7.43227 101.971 8.77543C101.971 10.1186 100.671 10.3034 100.671 10.3034H100.671ZM107.859 16.2108C106.374 16.2042 106.268 15.6136 106.268 15.5278C106.268 15.376 106.453 15.2803 106.453 15.2803C107.011 15.0129 108.149 14.125 108.149 14.125C110.565 12.244 110.856 9.66334 110.856 8.28057C110.856 6.89424 110.647 4.44227 108.169 2.29396C105.691 0.14541 102.552 0.0793943 102.552 0.0793943H85.1037V24.9102C85.1037 24.9894 85.1766 25.0523 85.2558 25.0523H94.9682V18.0918C94.9682 17.9663 95.1564 18.0918 95.1564 18.0918L100.216 23.1709C102.014 24.9891 104.988 25.0518 104.988 25.0518H119.921V16.2113H107.859V16.2108ZM70.9375 14.6452H67.2841C67.1487 14.6452 67.0632 14.5 67.0632 14.3614C67.0632 14.3086 69.0068 8.04494 69.0068 8.04494C69.0761 7.81059 69.0957 7.80373 69.1091 7.80373H69.1124C69.1256 7.80373 69.1454 7.81059 69.2148 8.04494C69.2148 8.04494 71.1584 14.3088 71.1584 14.3614C71.1584 14.5 71.0695 14.6452 70.9375 14.6452ZM75.8547 0.299277C75.8372 0.237534 75.8007 0.182895 75.7503 0.143174C75.6999 0.103452 75.6382 0.080684 75.5741 0.078125H62.159C62.0269 0.0847266 61.9147 0.173848 61.8784 0.295977C61.8784 0.295977 54.4694 24.7835 54.4694 24.8297C54.4694 24.9518 54.5684 25.0508 54.6903 25.0508H63.5582C63.6309 25.028 63.6834 24.9584 63.6999 24.8825L64.7331 21.5792C64.7497 21.5391 64.7775 21.5047 64.8133 21.4801C64.849 21.4555 64.8911 21.4418 64.9344 21.4405H73.1122C73.156 21.4435 73.1981 21.4583 73.2341 21.4832C73.2702 21.5082 73.2988 21.5425 73.3169 21.5825L74.3731 24.8825C74.3894 24.9587 74.4422 25.0277 74.5115 25.0541L83.2373 25.0508C83.3594 25.0508 83.4584 24.9584 83.4584 24.833C83.4584 24.7934 75.8547 0.299277 75.8547 0.299277Z" fill="#222222"/>
</svg>
